<svg xmlns="http://www.w3.org/2000/svg" xmlns:xlink="http://www.w3.org/1999/xlink" width="2000"
  zoomAndPan="magnify" viewBox="0 0 1500 1499.999933" height="2000"
  preserveAspectRatio="xMidYMid meet" version="1.0">
  <defs>
    <style>
      path { fill: #fff }
    </style>
    <clipPath id="ab3a3ea716">
      <path d="M 4 17 L 1229 17 L 1229 500 L 4 500 Z M 4 17 " clip-rule="nonzero" />
    </clipPath>
    <clipPath id="bcea4fcfb6">
      <path
        d="M 1146.230469 -76.128906 L 1230.4375 387.214844 L 84.75 595.429688 L 0.539062 132.085938 Z M 1146.230469 -76.128906 "
        clip-rule="nonzero" />
    </clipPath>
    <clipPath id="af87058eac">
      <path
        d="M 1217.15625 389.628906 L 619.632812 498.222656 C 610.859375 499.816406 601.859375 499.730469 593.117188 497.964844 L 61.886719 390.796875 C 53.898438 389.183594 47.699219 382.863281 46.238281 374.84375 L 4.484375 145.089844 C 3.84375 141.566406 4.628906 137.933594 6.667969 134.992188 C 8.707031 132.046875 11.832031 130.035156 15.351562 129.394531 L 623.277344 18.910156 C 632.050781 17.316406 641.050781 17.410156 649.789062 19.191406 L 1170.089844 125.242188 C 1178.082031 126.871094 1184.273438 133.199219 1185.734375 141.21875 L 1228.027344 373.929688 C 1228.664062 377.453125 1227.878906 381.085938 1225.84375 384.03125 C 1223.804688 386.972656 1220.679688 388.988281 1217.15625 389.628906 Z M 1217.15625 389.628906 "
        clip-rule="nonzero" />
    </clipPath>
    <clipPath id="f577ebdb90">
      <path
        d="M 0 0.28125 L 1224.800781 0.28125 L 1224.800781 482.921875 L 0 482.921875 Z M 0 0.28125 "
        clip-rule="nonzero" />
    </clipPath>
    <clipPath id="6a14608c81">
      <path
        d="M 1142.230469 -93.128906 L 1226.4375 370.214844 L 80.75 578.429688 L -3.460938 115.085938 Z M 1142.230469 -93.128906 "
        clip-rule="nonzero" />
    </clipPath>
    <clipPath id="5f051ab639">
      <path
        d="M 1213.15625 372.628906 L 615.632812 481.222656 C 606.859375 482.816406 597.859375 482.730469 589.117188 480.964844 L 57.886719 373.796875 C 49.898438 372.183594 43.699219 365.863281 42.238281 357.84375 L 0.484375 128.089844 C -0.15625 124.566406 0.628906 120.933594 2.667969 117.992188 C 4.707031 115.046875 7.832031 113.035156 11.351562 112.394531 L 619.277344 1.910156 C 628.050781 0.316406 637.050781 0.410156 645.789062 2.191406 L 1166.089844 108.242188 C 1174.082031 109.871094 1180.273438 116.199219 1181.734375 124.21875 L 1224.027344 356.929688 C 1224.664062 360.453125 1223.878906 364.085938 1221.84375 367.03125 C 1219.804688 369.972656 1216.679688 371.988281 1213.15625 372.628906 Z M 1213.15625 372.628906 "
        clip-rule="nonzero" />
    </clipPath>
    <clipPath id="eb739a1ec4">
      <rect x="0" width="1225" y="0" height="483" />
    </clipPath>
    <clipPath id="f53198e60e">
      <path d="M 81 508 L 1305 508 L 1305 990 L 81 990 Z M 81 508 " clip-rule="nonzero" />
    </clipPath>
    <clipPath id="60c96ed20a">
      <path
        d="M 1224.785156 416.75 L 1307.019531 880.449219 L 160.449219 1083.78125 L 78.21875 620.085938 Z M 1224.785156 416.75 "
        clip-rule="nonzero" />
    </clipPath>
    <clipPath id="eb7639f962">
      <path
        d="M 1293.726562 882.804688 L 695.746094 988.851562 C 686.964844 990.410156 677.964844 990.285156 669.230469 988.484375 L 138.460938 879.054688 C 130.476562 877.40625 124.304688 871.058594 122.882812 863.035156 L 82.105469 633.105469 C 81.480469 629.578125 82.28125 625.949219 84.332031 623.015625 C 86.382812 620.082031 89.515625 618.082031 93.042969 617.457031 L 701.429688 509.5625 C 710.210938 508.003906 719.210938 508.140625 727.941406 509.957031 L 1247.785156 618.222656 C 1255.769531 619.882812 1261.9375 626.238281 1263.359375 634.265625 L 1304.660156 867.15625 C 1305.285156 870.679688 1304.484375 874.308594 1302.433594 877.246094 C 1300.382812 880.179688 1297.25 882.179688 1293.726562 882.804688 Z M 1293.726562 882.804688 "
        clip-rule="nonzero" />
    </clipPath>
    <clipPath id="f4385b4f23">
      <path d="M 0.359375 0 L 1224 0 L 1224 482 L 0.359375 482 Z M 0.359375 0 " clip-rule="nonzero" />
    </clipPath>
    <clipPath id="8c94fb42e0">
      <path
        d="M 1143.785156 -91.25 L 1226.019531 372.449219 L 79.449219 575.78125 L -2.78125 112.085938 Z M 1143.785156 -91.25 "
        clip-rule="nonzero" />
    </clipPath>
    <clipPath id="89b3d75af6">
      <path
        d="M 1212.726562 374.804688 L 614.746094 480.851562 C 605.964844 482.410156 596.964844 482.285156 588.230469 480.484375 L 57.460938 371.054688 C 49.476562 369.40625 43.304688 363.058594 41.882812 355.035156 L 1.105469 125.105469 C 0.480469 121.578125 1.28125 117.949219 3.332031 115.015625 C 5.382812 112.082031 8.515625 110.082031 12.042969 109.457031 L 620.429688 1.5625 C 629.210938 0.00390625 638.210938 0.140625 646.941406 1.957031 L 1166.785156 110.222656 C 1174.769531 111.882812 1180.9375 118.238281 1182.359375 126.265625 L 1223.660156 359.15625 C 1224.285156 362.679688 1223.484375 366.308594 1221.433594 369.246094 C 1219.382812 372.179688 1216.25 374.179688 1212.726562 374.804688 Z M 1212.726562 374.804688 "
        clip-rule="nonzero" />
    </clipPath>
    <clipPath id="e982b52bf1">
      <rect x="0" width="1224" y="0" height="482" />
    </clipPath>
    <clipPath id="2c6a57679e">
      <path d="M 164 1001 L 1388 1001 L 1388 1483 L 164 1483 Z M 164 1001 " clip-rule="nonzero" />
    </clipPath>
    <clipPath id="1678e23100">
      <path
        d="M 1307.660156 909.367188 L 1389.894531 1373.066406 L 243.324219 1576.402344 L 161.089844 1112.703125 Z M 1307.660156 909.367188 "
        clip-rule="nonzero" />
    </clipPath>
    <clipPath id="83cb4157f6">
      <path
        d="M 1376.601562 1375.425781 L 778.621094 1481.472656 C 769.839844 1483.027344 760.839844 1482.902344 752.105469 1481.101562 L 221.335938 1371.671875 C 213.351562 1370.027344 207.179688 1363.679688 205.757812 1355.652344 L 164.980469 1125.722656 C 164.355469 1122.199219 165.15625 1118.570312 167.207031 1115.636719 C 169.257812 1112.699219 172.390625 1110.699219 175.914062 1110.074219 L 784.304688 1002.179688 C 793.085938 1000.625 802.082031 1000.757812 810.8125 1002.578125 L 1330.660156 1110.839844 C 1338.644531 1112.503906 1344.808594 1118.855469 1346.234375 1126.886719 L 1387.535156 1359.773438 C 1388.160156 1363.300781 1387.359375 1366.929688 1385.308594 1369.863281 C 1383.257812 1372.800781 1380.125 1374.800781 1376.601562 1375.425781 Z M 1376.601562 1375.425781 "
        clip-rule="nonzero" />
    </clipPath>
    <clipPath id="bcbcef52ae">
      <path d="M 0.160156 0 L 1224 0 L 1224 482 L 0.160156 482 Z M 0.160156 0 " clip-rule="nonzero" />
    </clipPath>
    <clipPath id="d5f9ed9b60">
      <path
        d="M 1143.660156 -91.632812 L 1225.894531 372.066406 L 79.324219 575.402344 L -2.910156 111.703125 Z M 1143.660156 -91.632812 "
        clip-rule="nonzero" />
    </clipPath>
    <clipPath id="9206f5106f">
      <path
        d="M 1212.601562 374.425781 L 614.621094 480.472656 C 605.839844 482.027344 596.839844 481.902344 588.105469 480.101562 L 57.335938 370.671875 C 49.351562 369.027344 43.179688 362.679688 41.757812 354.652344 L 0.980469 124.722656 C 0.355469 121.199219 1.15625 117.570312 3.207031 114.636719 C 5.257812 111.699219 8.390625 109.699219 11.914062 109.074219 L 620.304688 1.179688 C 629.085938 -0.375 638.082031 -0.242188 646.8125 1.578125 L 1166.660156 109.839844 C 1174.644531 111.503906 1180.808594 117.855469 1182.234375 125.886719 L 1223.535156 358.773438 C 1224.160156 362.300781 1223.359375 365.929688 1221.308594 368.863281 C 1219.257812 371.800781 1216.125 373.800781 1212.601562 374.425781 Z M 1212.601562 374.425781 "
        clip-rule="nonzero" />
    </clipPath>
    <clipPath id="41d2929202">
      <rect x="0" width="1224" y="0" height="482" />
    </clipPath>
    <clipPath id="fc79e7e3fe">
      <rect x="0" width="1391" y="0" height="1500" />
    </clipPath>
  </defs>
  <g transform="matrix(1, 0, 0, 1, 54, 0.000000000000112861)">
    <g clip-path="url(#fc79e7e3fe)">
      <g clip-path="url(#ab3a3ea716)">
        <g clip-path="url(#bcea4fcfb6)">
          <g clip-path="url(#af87058eac)">
            <g transform="matrix(1, 0, 0, 1, 4, 17)">
              <g clip-path="url(#eb739a1ec4)">
                <g clip-path="url(#f577ebdb90)">
                  <g clip-path="url(#6a14608c81)">
                    <g clip-path="url(#5f051ab639)">
                      <path fill="#222222"
                        d="M 1142.230469 -93.128906 L 1226.4375 370.214844 L 82.558594 578.101562 L -1.648438 114.757812 Z M 1142.230469 -93.128906 "
                        fill-opacity="1" fill-rule="nonzero" />
                    </g>
                  </g>
                </g>
              </g>
            </g>
          </g>
        </g>
      </g>
      <g clip-path="url(#f53198e60e)">
        <g clip-path="url(#60c96ed20a)">
          <g clip-path="url(#eb7639f962)">
            <g transform="matrix(1, 0, 0, 1, 81, 508)">
              <g clip-path="url(#e982b52bf1)">
                <g clip-path="url(#f4385b4f23)">
                  <g clip-path="url(#8c94fb42e0)">
                    <g clip-path="url(#89b3d75af6)">
                      <path fill="#222222"
                        d="M 1143.785156 -91.25 L 1226.019531 372.449219 L 81.261719 575.460938 L -0.972656 111.761719 Z M 1143.785156 -91.25 "
                        fill-opacity="1" fill-rule="nonzero" />
                    </g>
                  </g>
                </g>
              </g>
            </g>
          </g>
        </g>
      </g>
      <g clip-path="url(#2c6a57679e)">
        <g clip-path="url(#1678e23100)">
          <g clip-path="url(#83cb4157f6)">
            <g transform="matrix(1, 0, 0, 1, 164, 1001)">
              <g clip-path="url(#41d2929202)">
                <g clip-path="url(#bcbcef52ae)">
                  <g clip-path="url(#d5f9ed9b60)">
                    <g clip-path="url(#9206f5106f)">
                      <path fill="#222222"
                        d="M 1143.660156 -91.632812 L 1225.894531 372.066406 L 81.136719 575.082031 L -1.097656 111.382812 Z M 1143.660156 -91.632812 "
                        fill-opacity="1" fill-rule="nonzero" />
                    </g>
                  </g>
                </g>
              </g>
            </g>
          </g>
        </g>
      </g>
    </g>
  </g>
</svg>